<svg viewBox="0 0 143 171" fill="none" xmlns="http://www.w3.org/2000/svg"><path fill-rule="evenodd" clip-rule="evenodd" d="M51.4273 9.06885C79.8514 9.06885 102.855 32.0346 102.855 60.4127V170.853H10.1096C4.54201 170.853 0 166.319 0 160.76V60.559C0 32.1809 23.0031 9.06885 51.4273 9.06885Z" fill="#ACC1D9"/><path fill-rule="evenodd" clip-rule="evenodd" d="M32.9662 25.1597C38.2408 25.1597 42.4898 29.4018 42.4898 34.6678V38.9099C42.4898 44.1759 38.2408 48.418 32.9662 48.418C27.6916 48.418 23.4426 44.1759 23.4426 38.9099V34.6678C23.4426 29.548 27.6916 25.1597 32.9662 25.1597Z" fill="white"/><path fill-rule="evenodd" clip-rule="evenodd" d="M48.6436 25.1597C43.369 25.1597 39.12 29.4018 39.12 34.6678V38.9099C39.12 44.1759 43.369 48.418 48.6436 48.418C53.9181 48.418 58.1671 44.1759 58.1671 38.9099V34.6678C58.1671 29.548 53.9181 25.1597 48.6436 25.1597Z" fill="white"/><path fill-rule="evenodd" clip-rule="evenodd" d="M48.2037 31.4502C45.5664 31.4502 43.3687 33.6444 43.3687 36.2774V39.203C43.3687 41.836 45.5664 44.0302 48.2037 44.0302C50.841 44.0302 53.0387 41.836 53.0387 39.203V36.2774C53.0387 33.6444 50.841 31.4502 48.2037 31.4502Z" fill="#636363"/><path fill-rule="evenodd" clip-rule="evenodd" d="M33.992 31.4502C31.3547 31.4502 29.157 33.6444 29.157 36.2774V39.203C29.157 41.836 31.3547 44.0302 33.992 44.0302C36.6293 44.0302 38.8271 41.836 38.8271 39.203V36.2774C38.8271 33.6444 36.6293 31.4502 33.992 31.4502Z" fill="#636363"/><path fill-rule="evenodd" clip-rule="evenodd" d="M27.8382 51.4897H45.4201C53.4785 51.4897 60.0718 58.0723 60.0718 66.1176C60.0718 74.163 53.4785 80.7455 45.4201 80.7455H27.8382C19.7798 80.7455 13.1865 74.163 13.1865 66.1176C13.1865 58.0723 19.7798 51.4897 27.8382 51.4897Z" fill="white"/><path fill-rule="evenodd" clip-rule="evenodd" d="M34.4313 105.613C47.7643 105.613 58.6065 116.437 58.6065 129.749V137.063C58.6065 150.374 47.7643 161.199 34.4313 161.199C21.0983 161.199 10.2561 150.374 10.2561 137.063V129.749C10.2561 116.437 21.0983 105.613 34.4313 105.613Z" fill="white"/><path d="M103.001 170.854C97.1403 170.854 92.3053 166.173 92.3053 160.175C92.3053 154.178 96.9938 149.497 103.001 149.497C106.517 149.497 111.645 147.449 114.429 143.646C117.067 139.989 117.213 135.015 115.162 129.018C105.638 101.517 118.678 89.6688 127.323 84.9879C132.451 82.2086 138.898 84.1102 141.681 89.2299C144.465 94.3497 142.56 100.786 137.432 103.565C135.088 104.882 130.253 107.515 135.235 121.996C139.63 134.576 138.311 146.571 131.718 155.933C125.418 165.149 114.136 170.854 103.001 170.854Z" fill="#ACC1D9"/><path fill-rule="evenodd" clip-rule="evenodd" d="M98.6054 88.0596H103.001V114.39H98.6054C91.2796 114.39 85.4189 108.539 85.4189 101.225C85.4189 93.9107 91.2796 88.0596 98.6054 88.0596Z" fill="#95ADC8"/><path fill-rule="evenodd" clip-rule="evenodd" d="M98.6054 123.167H103.001V149.497H98.6054C91.2796 149.497 85.4189 143.646 85.4189 136.332C85.4189 129.018 91.2796 123.167 98.6054 123.167Z" fill="#95ADC8"/><path d="M74.7234 23.6968H23.4426V38.3247H74.7234V23.6968Z" fill="#ACC1D9"/><path fill-rule="evenodd" clip-rule="evenodd" d="M36.1894 59.5351L38.6802 56.9021C39.8523 55.5856 39.8523 53.5376 38.5337 52.3674C37.9476 51.7823 37.215 51.4897 36.3359 51.4897H31.2079C29.4497 51.4897 27.9845 52.9525 27.9845 54.7079C27.9845 55.4393 28.2775 56.3169 28.8636 56.9021L31.3544 59.5351C32.673 60.8516 34.7243 60.9979 36.0429 59.6814C36.0429 59.6814 36.0429 59.6814 36.1894 59.5351Z" fill="#F6A4A5"/><path fill-rule="evenodd" clip-rule="evenodd" d="M48.6435 3.07171L57.7275 16.3831H27.8381L36.9222 3.07171C39.1199 -0.146427 43.5154 -1.0241 46.7387 1.17008C47.4713 1.7552 48.0574 2.34031 48.6435 3.07171Z" fill="#ACC1D9"/><path fill-rule="evenodd" clip-rule="evenodd" d="M65.6392 3.07171L74.7232 16.3831H44.8339L53.9179 3.07171C56.1156 -0.146427 60.5111 -1.0241 63.7345 1.17008C64.4671 1.7552 65.1996 2.34031 65.6392 3.07171Z" fill="#ACC1D9"/></svg>